<svg 
 xmlns="http://www.w3.org/2000/svg"
 xmlns:xlink="http://www.w3.org/1999/xlink"
 width="16px" height="15px">
<path fill-rule="evenodd"  fill="white"
 d="M9.063,6.002 C9.208,5.627 9.299,5.237 9.336,4.830 C9.372,4.424 9.349,4.021 9.266,3.619 C9.182,3.219 9.042,2.830 8.844,2.455 C8.646,2.080 8.385,1.731 8.063,1.408 C7.729,1.075 7.359,0.810 6.953,0.612 C6.547,0.414 6.125,0.278 5.688,0.205 C5.250,0.133 4.812,0.125 4.375,0.182 C3.938,0.239 3.521,0.356 3.125,0.533 L6.000,3.408 L4.000,5.408 L1.063,2.533 C0.854,2.940 0.721,3.362 0.664,3.799 C0.607,4.237 0.617,4.672 0.695,5.104 C0.773,5.536 0.917,5.955 1.125,6.362 C1.333,6.768 1.604,7.138 1.937,7.471 C2.260,7.794 2.609,8.054 2.984,8.252 C3.359,8.450 3.745,8.591 4.141,8.674 C4.536,8.758 4.938,8.783 5.344,8.752 C5.750,8.721 6.146,8.627 6.531,8.471 L12.594,14.533 C12.740,14.679 12.898,14.752 13.070,14.752 C13.242,14.752 13.396,14.679 13.531,14.533 L15.062,13.002 C15.240,12.867 15.328,12.700 15.328,12.502 C15.328,12.304 15.260,12.158 15.125,12.065 L9.063,6.002 Z"/>
</svg>