<svg 
 xmlns="http://www.w3.org/2000/svg"
 xmlns:xlink="http://www.w3.org/1999/xlink"
 width="25px" height="20px">
<path fill-rule="evenodd"  fill="rgb(34, 34, 34)"
 d="M1.508,19.200 C1.508,12.890 1.508,6.606 1.508,0.335 C1.226,0.335 0.945,0.335 0.664,0.335 C0.664,6.620 0.664,12.917 0.664,19.200 C0.945,19.200 1.212,19.200 1.508,19.200 ZM2.352,19.186 C2.352,12.890 2.352,6.606 2.352,0.335 C2.204,0.335 2.070,0.335 1.923,0.335 C1.923,6.620 1.923,12.903 1.923,19.186 C2.083,19.186 2.204,19.186 2.352,19.186 ZM3.611,19.186 C3.611,12.890 3.611,6.606 3.611,0.335 C3.477,0.335 3.329,0.335 3.196,0.335 C3.196,6.620 3.196,12.903 3.196,19.186 C3.343,19.186 3.477,19.186 3.611,19.186 ZM5.714,19.186 C5.714,12.890 5.714,6.606 5.714,0.335 C5.580,0.335 5.433,0.335 5.299,0.335 C5.299,6.620 5.299,12.903 5.299,19.186 C5.460,19.186 5.580,19.186 5.714,19.186 ZM7.818,19.186 C7.818,12.890 7.818,6.606 7.818,0.335 C7.550,0.335 7.269,0.335 6.986,0.335 C6.986,6.620 6.986,12.903 6.986,19.186 C7.282,19.186 7.550,19.186 7.818,19.186 ZM9.506,19.186 C9.506,12.890 9.506,6.606 9.506,0.335 C9.372,0.335 9.225,0.335 9.090,0.335 C9.090,6.620 9.090,12.903 9.090,19.186 C9.237,19.186 9.372,19.186 9.506,19.186 ZM10.350,19.186 C10.350,12.890 10.350,6.606 10.350,0.335 C10.216,0.335 10.068,0.335 9.935,0.335 C9.935,6.620 9.935,12.903 9.935,19.186 C10.082,19.186 10.216,19.186 10.350,19.186 ZM11.194,19.186 C11.194,12.890 11.194,6.606 11.194,0.335 C11.061,0.335 10.913,0.335 10.778,0.335 C10.778,6.620 10.778,12.903 10.778,19.186 C10.925,19.186 11.061,19.186 11.194,19.186 ZM13.297,19.186 C13.297,12.890 13.297,6.606 13.297,0.335 C13.016,0.335 12.735,0.335 12.454,0.335 C12.454,6.620 12.454,12.903 12.454,19.186 C12.761,19.186 13.016,19.186 13.297,19.186 ZM15.400,19.186 C15.400,12.890 15.400,6.606 15.400,0.335 C15.119,0.335 14.838,0.335 14.557,0.335 C14.557,6.620 14.557,12.903 14.557,19.186 C14.864,19.186 15.132,19.186 15.400,19.186 ZM17.088,19.186 C17.088,12.890 17.088,6.606 17.088,0.335 C16.807,0.335 16.526,0.335 16.245,0.335 C16.245,6.620 16.245,12.903 16.245,19.186 C16.540,19.186 16.807,19.186 17.088,19.186 ZM18.777,19.186 C18.777,12.890 18.777,6.606 18.777,0.335 C18.496,0.335 18.215,0.335 17.932,0.335 C17.932,6.620 17.932,12.903 17.932,19.186 C18.228,19.186 18.496,19.186 18.777,19.186 ZM20.036,19.186 C20.036,12.890 20.036,6.606 20.036,0.335 C19.755,0.335 19.473,0.335 19.192,0.335 C19.192,6.620 19.192,12.903 19.192,19.186 C19.500,19.186 19.755,19.186 20.036,19.186 ZM22.567,19.186 C22.567,12.890 22.567,6.606 22.567,0.335 C22.139,0.335 21.724,0.335 21.309,0.335 C21.309,6.620 21.309,12.903 21.309,19.186 C21.737,19.186 22.152,19.186 22.567,19.186 ZM23.412,19.186 C23.412,12.890 23.412,6.606 23.412,0.335 C23.265,0.335 23.131,0.335 22.984,0.335 C22.984,6.620 22.984,12.903 22.984,19.186 C23.144,19.186 23.265,19.186 23.412,19.186 ZM24.671,19.200 C24.671,12.917 24.671,6.620 24.671,0.335 C24.390,0.335 24.108,0.335 23.827,0.335 C23.827,6.620 23.827,12.903 23.827,19.200 C24.135,19.200 24.403,19.200 24.671,19.200 Z"/>
</svg>