<svg 
 xmlns="http://www.w3.org/2000/svg"
 xmlns:xlink="http://www.w3.org/1999/xlink"
 width="14px" height="15px">
<path fill="white"
 d="M7.897,8.187 L7.897,11.211 L6.420,11.211 L6.420,8.187 L3.397,8.187 L3.397,6.711 L6.420,6.711 L6.420,3.687 L7.897,3.687 L7.897,6.711 L10.920,6.711 L10.920,8.187 L7.897,8.187 ZM1.920,0.699 C1.498,0.699 1.141,0.852 0.848,1.156 C0.555,1.461 0.409,1.812 0.409,2.210 L0.409,12.688 C0.409,13.098 0.555,13.452 0.848,13.751 C1.141,14.050 1.498,14.199 1.920,14.199 L12.397,14.199 C12.807,14.199 13.162,14.050 13.461,13.751 C13.759,13.452 13.908,13.098 13.908,12.688 L13.908,2.210 C13.908,1.812 13.756,1.461 13.452,1.156 C13.147,0.852 12.795,0.699 12.397,0.699 L1.920,0.699 Z"/>
</svg>