<svg 
 xmlns="http://www.w3.org/2000/svg"
 xmlns:xlink="http://www.w3.org/1999/xlink"
 width="21px" height="15px">
<path fill-rule="evenodd"  fill="white"
 d="M14.616,13.107 C14.351,12.842 14.219,12.516 14.219,12.129 C14.219,11.742 14.351,11.417 14.616,11.152 C14.881,10.887 15.207,10.754 15.594,10.754 C15.980,10.754 16.306,10.887 16.571,11.152 C16.836,11.417 16.969,11.742 16.969,12.129 C16.969,12.516 16.836,12.842 16.571,13.107 C16.306,13.372 15.980,13.504 15.594,13.504 C15.207,13.504 14.881,13.372 14.616,13.107 ZM18.773,7.532 L14.691,7.532 L14.691,5.254 L16.969,5.254 L18.773,7.532 ZM3.616,13.107 C3.351,12.842 3.219,12.516 3.219,12.129 C3.219,11.742 3.351,11.417 3.616,11.152 C3.881,10.887 4.207,10.754 4.594,10.754 C4.980,10.754 5.306,10.887 5.571,11.152 C5.836,11.417 5.969,11.742 5.969,12.129 C5.969,12.516 5.836,12.842 5.571,13.107 C5.306,13.372 4.980,13.504 4.594,13.504 C4.207,13.504 3.881,13.372 3.616,13.107 ZM14.691,3.879 L14.691,0.184 L1.844,0.184 C1.342,0.184 0.909,0.370 0.544,0.742 C0.179,1.115 -0.004,1.545 -0.004,2.032 L-0.004,12.129 L1.844,12.129 C1.844,12.888 2.116,13.536 2.660,14.073 C3.204,14.611 3.849,14.879 4.594,14.879 C5.353,14.879 6.001,14.611 6.538,14.073 C7.075,13.536 7.344,12.888 7.344,12.129 L12.844,12.129 C12.844,12.888 13.116,13.536 13.660,14.073 C14.204,14.611 14.849,14.879 15.594,14.879 C16.353,14.879 17.001,14.611 17.538,14.073 C18.075,13.536 18.344,12.888 18.344,12.129 L20.191,12.129 L20.191,7.532 L17.441,3.879 L14.691,3.879 Z"/>
</svg>