<svg 
 xmlns="http://www.w3.org/2000/svg"
 xmlns:xlink="http://www.w3.org/1999/xlink"
 width="14px" height="15px">
<path fill-rule="evenodd"  fill="rgb(52, 152, 219)"
 d="M4.927,8.989 C4.131,9.132 3.369,9.351 2.641,9.644 C1.912,9.938 1.293,10.303 0.783,10.740 C0.272,11.178 0.017,11.683 0.017,12.256 L0.017,14.018 L13.982,14.018 L13.982,12.256 C13.982,11.683 13.727,11.178 13.217,10.740 C12.706,10.303 12.087,9.938 11.359,9.644 C10.630,9.351 9.868,9.132 9.072,8.989 C8.276,8.845 7.585,8.774 7.000,8.774 C6.414,8.774 5.724,8.845 4.927,8.989 ZM9.460,5.998 C10.134,5.322 10.470,4.499 10.470,3.530 C10.470,2.574 10.130,1.747 9.450,1.051 C8.769,0.354 7.952,0.006 7.000,0.006 C6.033,0.006 5.213,0.354 4.539,1.051 C3.866,1.747 3.529,2.574 3.529,3.530 C3.529,4.499 3.869,5.322 4.550,5.998 C5.230,6.674 6.047,7.012 7.000,7.012 C7.966,7.012 8.786,6.674 9.460,5.998 Z"/>
</svg>