<svg 
 xmlns="http://www.w3.org/2000/svg"
 xmlns:xlink="http://www.w3.org/1999/xlink"
 width="195px" height="57px">
<path fill-rule="evenodd"  fill="rgb(231, 76, 60)"
 d="M166.500,57.000 L28.500,57.000 C12.760,57.000 -0.000,44.240 -0.000,28.500 C-0.000,12.760 12.760,-0.000 28.500,-0.000 L166.500,-0.000 C182.240,-0.000 195.000,12.760 195.000,28.500 C195.000,44.240 182.240,57.000 166.500,57.000 ZM167.500,6.000 L28.500,6.000 C16.074,6.000 6.000,16.074 6.000,28.500 C6.000,40.926 16.074,51.000 28.500,51.000 L167.500,51.000 C179.926,51.000 190.000,40.926 190.000,28.500 C190.000,16.074 179.926,6.000 167.500,6.000 ZM172.475,38.877 L169.839,38.877 C168.996,38.877 168.430,38.626 168.141,38.124 L162.616,29.346 L160.340,31.997 L160.340,38.124 C160.340,38.626 160.087,38.877 159.582,38.877 L156.512,38.877 C156.006,38.877 155.754,38.626 155.754,38.124 L155.754,16.591 C155.754,16.090 156.006,15.839 156.512,15.839 L159.582,15.839 C160.087,15.839 160.340,16.090 160.340,16.591 L160.340,26.802 L160.413,26.802 C160.605,26.229 160.978,25.489 161.532,24.581 L167.022,16.591 C167.334,16.090 167.804,15.839 168.430,15.839 L171.969,15.839 C172.234,15.839 172.397,15.917 172.457,16.072 C172.517,16.227 172.451,16.424 172.258,16.663 L165.397,26.086 L173.053,37.981 C173.221,38.268 173.252,38.489 173.143,38.644 C173.035,38.799 172.812,38.877 172.475,38.877 ZM147.772,38.877 L144.847,38.877 C144.413,38.877 144.100,38.829 143.908,38.733 C143.715,38.638 143.559,38.435 143.438,38.124 L139.827,30.385 L137.407,30.385 C137.118,30.385 136.974,30.517 136.974,30.779 L136.974,38.124 C136.974,38.626 136.721,38.877 136.215,38.877 L133.145,38.877 C132.640,38.877 132.387,38.626 132.387,38.124 L132.387,16.591 C132.387,16.090 132.640,15.839 133.145,15.839 L141.741,15.839 C143.619,15.839 145.087,16.353 146.147,17.379 C147.206,18.407 147.736,19.852 147.736,21.715 L147.736,24.509 C147.736,27.209 146.664,29.000 144.522,29.884 L144.522,30.027 L148.386,38.017 C148.603,38.590 148.398,38.877 147.772,38.877 ZM143.149,21.894 C143.149,21.154 142.969,20.616 142.608,20.282 C142.247,19.947 141.681,19.780 140.910,19.780 L137.371,19.780 C137.106,19.780 136.974,19.912 136.974,20.174 L136.974,26.337 C136.974,26.600 137.106,26.731 137.371,26.731 L140.910,26.731 C141.681,26.731 142.247,26.569 142.608,26.247 C142.969,25.925 143.149,25.405 143.149,24.688 L143.149,21.894 ZM124.045,38.877 L112.235,38.877 C111.729,38.877 111.477,38.626 111.477,38.124 L111.477,16.591 C111.477,16.090 111.729,15.839 112.235,15.839 L124.045,15.839 C124.526,15.839 124.767,16.090 124.767,16.591 L124.767,19.028 C124.767,19.529 124.526,19.780 124.045,19.780 L116.497,19.780 C116.208,19.780 116.063,19.912 116.063,20.174 L116.063,24.832 C116.063,25.095 116.208,25.226 116.497,25.226 L122.672,25.226 C123.178,25.226 123.431,25.477 123.431,25.978 L123.431,28.415 C123.431,28.916 123.178,29.167 122.672,29.167 L116.497,29.167 C116.208,29.167 116.063,29.299 116.063,29.561 L116.063,34.541 C116.063,34.804 116.208,34.935 116.497,34.935 L124.045,34.935 C124.526,34.935 124.767,35.186 124.767,35.688 L124.767,38.124 C124.767,38.626 124.526,38.877 124.045,38.877 ZM97.608,38.877 L88.579,38.877 C88.074,38.877 87.821,38.626 87.821,38.124 L87.821,16.591 C87.821,16.090 88.074,15.839 88.579,15.839 L97.247,15.839 C99.149,15.839 100.618,16.340 101.653,17.344 C102.688,18.347 103.206,19.780 103.206,21.643 L103.206,23.112 C103.206,25.142 102.255,26.456 100.353,27.053 C101.316,27.196 102.087,27.585 102.665,28.218 C103.242,28.851 103.531,29.753 103.531,30.923 L103.531,33.072 C103.531,34.935 103.013,36.369 101.978,37.372 C100.943,38.375 99.486,38.877 97.608,38.877 ZM98.728,21.715 C98.728,20.975 98.553,20.443 98.204,20.120 C97.855,19.798 97.295,19.637 96.525,19.637 L92.805,19.637 C92.540,19.637 92.408,19.768 92.408,20.031 L92.408,24.796 C92.408,25.059 92.540,25.190 92.805,25.190 L96.489,25.190 C97.259,25.190 97.825,25.029 98.186,24.706 C98.547,24.384 98.728,23.853 98.728,23.112 L98.728,21.715 ZM99.089,30.923 C99.089,30.183 98.909,29.657 98.547,29.346 C98.186,29.036 97.596,28.880 96.778,28.880 L92.805,28.880 C92.540,28.880 92.408,29.012 92.408,29.275 L92.408,34.685 C92.408,34.948 92.540,35.079 92.805,35.079 L96.850,35.079 C97.644,35.079 98.216,34.918 98.565,34.595 C98.914,34.273 99.089,33.741 99.089,33.001 L99.089,30.923 ZM80.634,38.877 L68.752,38.877 C68.247,38.877 67.994,38.626 67.994,38.124 L67.994,16.591 C67.994,16.090 68.247,15.839 68.752,15.839 L71.822,15.839 C72.328,15.839 72.581,16.090 72.581,16.591 L72.581,34.506 C72.581,34.769 72.725,34.900 73.014,34.900 L80.634,34.900 C81.116,34.900 81.357,35.163 81.357,35.688 L81.357,38.124 C81.357,38.626 81.116,38.877 80.634,38.877 ZM59.652,38.877 L47.842,38.877 C47.336,38.877 47.084,38.626 47.084,38.124 L47.084,16.591 C47.084,16.090 47.336,15.839 47.842,15.839 L59.652,15.839 C60.133,15.839 60.374,16.090 60.374,16.591 L60.374,19.028 C60.374,19.529 60.133,19.780 59.652,19.780 L52.104,19.780 C51.815,19.780 51.670,19.912 51.670,20.174 L51.670,24.832 C51.670,25.095 51.815,25.226 52.104,25.226 L58.279,25.226 C58.785,25.226 59.038,25.477 59.038,25.978 L59.038,28.415 C59.038,28.916 58.785,29.167 58.279,29.167 L52.104,29.167 C51.815,29.167 51.670,29.299 51.670,29.561 L51.670,34.541 C51.670,34.804 51.815,34.935 52.104,34.935 L59.652,34.935 C60.133,34.935 60.374,35.186 60.374,35.688 L60.374,38.124 C60.374,38.626 60.133,38.877 59.652,38.877 ZM33.215,38.877 L29.387,38.877 C27.485,38.877 26.016,38.375 24.981,37.372 C23.945,36.369 23.428,34.924 23.428,33.037 L23.428,21.679 C23.428,19.792 23.945,18.347 24.981,17.344 C26.016,16.340 27.485,15.839 29.387,15.839 L33.215,15.839 C35.093,15.839 36.550,16.347 37.585,17.362 C38.620,18.377 39.138,19.816 39.138,21.679 L39.138,22.754 C39.138,23.279 38.885,23.542 38.380,23.542 L35.310,23.542 C34.804,23.542 34.551,23.279 34.551,22.754 L34.551,21.894 C34.551,21.130 34.395,20.586 34.082,20.264 C33.769,19.941 33.227,19.780 32.457,19.780 L30.109,19.780 C29.363,19.780 28.827,19.941 28.502,20.264 C28.177,20.586 28.015,21.130 28.015,21.894 L28.015,32.822 C28.015,33.586 28.177,34.129 28.502,34.452 C28.827,34.774 29.363,34.935 30.109,34.935 L32.457,34.935 C33.227,34.935 33.769,34.774 34.082,34.452 C34.395,34.129 34.551,33.586 34.551,32.822 L34.551,30.564 C34.551,30.302 34.419,30.170 34.154,30.170 L31.987,30.170 C31.482,30.170 31.229,29.919 31.229,29.418 L31.229,26.981 C31.229,26.480 31.482,26.229 31.987,26.229 L38.308,26.229 C38.861,26.229 39.138,26.504 39.138,27.053 L39.138,33.037 C39.138,34.900 38.620,36.339 37.585,37.354 C36.550,38.369 35.093,38.877 33.215,38.877 Z"/>
</svg>