<svg id="Layer_1" data-name="Layer 1" xmlns="http://www.w3.org/2000/svg" viewBox="0 0 180 61.67"><defs><style>.cls-1{fill:#222;}.cls-2{fill:#e74c3c;}</style></defs><title>Gelberk</title><path id="Gelberk" class="cls-1" d="M32.28,40.45a5.47,5.47,0,0,0,1.48-4.1V30.67a.7.7,0,0,0-.61-.78H27a.63.63,0,0,0-.72.71v2.31a.63.63,0,0,0,.54.71H29a.33.33,0,0,1,.38.37v2.14a2.18,2.18,0,0,1-.45,1.55,2.11,2.11,0,0,1-1.54.46H25.17a1.69,1.69,0,0,1-2-2V25.78a1.69,1.69,0,0,1,2-2H27.4a2.11,2.11,0,0,1,1.54.46,2.18,2.18,0,0,1,.45,1.55v.82a.65.65,0,0,0,.54.74H33a.65.65,0,0,0,.72-.75v-1a5.47,5.47,0,0,0-1.48-4.1A5.7,5.7,0,0,0,28.12,20H24.48a5.78,5.78,0,0,0-4.19,1.43,5.46,5.46,0,0,0-1.48,4.11V36.35a5.46,5.46,0,0,0,1.48,4.11,5.78,5.78,0,0,0,4.19,1.43h3.64A5.69,5.69,0,0,0,32.28,40.45ZM54,41.18V38.87a.62.62,0,0,0-.51-.71H46.09a.35.35,0,0,1-.41-.37V33.05a.35.35,0,0,1,.31-.38h6a.63.63,0,0,0,.72-.71V29.65a.63.63,0,0,0-.54-.71H46.09a.35.35,0,0,1-.41-.37V24.15a.35.35,0,0,1,.31-.38h7.27a.62.62,0,0,0,.69-.71V20.75a.62.62,0,0,0-.51-.71H42a.63.63,0,0,0-.72.71V41.18a.63.63,0,0,0,.54.71H53.26a.62.62,0,0,0,.69-.71h0Zm20,0V38.87a.64.64,0,0,0-.51-.74H66a.35.35,0,0,1-.41-.37v-17A.63.63,0,0,0,65,20h-3.1a.63.63,0,0,0-.72.71V41.18a.63.63,0,0,0,.54.71H73.22a.62.62,0,0,0,.69-.71h0Zm10.51-3.26V32.78a.33.33,0,0,1,.28-.37h3.87a2.58,2.58,0,0,1,1.68.44,1.88,1.88,0,0,1,.51,1.5v2a2,2,0,0,1-.5,1.51,2.37,2.37,0,0,1-1.63.46H84.79a.33.33,0,0,1-.38-.37h0Zm0-9.38V24a.33.33,0,0,1,.28-.37h3.63a2.31,2.31,0,0,1,1.6.46,2,2,0,0,1,.5,1.51v1.33a1.94,1.94,0,0,1-.51,1.51,2.38,2.38,0,0,1-1.62.46H84.8a.33.33,0,0,1-.38-.37h0ZM80.78,41.89h8.58a5.73,5.73,0,0,0,4.16-1.43A5.42,5.42,0,0,0,95,36.39v-2a3.67,3.67,0,0,0-.82-2.57A3.59,3.59,0,0,0,92,30.67a3.57,3.57,0,0,0,2.71-3.74V25.54a5.42,5.42,0,0,0-1.48-4.08A5.78,5.78,0,0,0,89,20H80.77a.63.63,0,0,0-.72.71V41.18a.63.63,0,0,0,.54.71h.18Zm34.42-.71V38.87a.62.62,0,0,0-.51-.71h-7.35a.35.35,0,0,1-.41-.37V33.05a.35.35,0,0,1,.32-.38h6a.63.63,0,0,0,.72-.71V29.65a.63.63,0,0,0-.54-.71h-6.05a.35.35,0,0,1-.41-.37V24.15a.35.35,0,0,1,.32-.38h7.27a.62.62,0,0,0,.69-.71V20.75a.62.62,0,0,0-.51-.71H103.28a.63.63,0,0,0-.72.71V41.18a.63.63,0,0,0,.54.71h11.41a.62.62,0,0,0,.69-.71Zm11.61,0v-7a.35.35,0,0,1,.32-.38h2.4L133,41.18a1,1,0,0,0,.45.58,2.14,2.14,0,0,0,.89.14h2.78q.89,0,.58-.82L134,33.5v-.14Q137,32.1,137,28.26V25.61a5.46,5.46,0,0,0-1.51-4.11A5.78,5.78,0,0,0,131.34,20h-8.18a.63.63,0,0,0-.72.71V41.18a.63.63,0,0,0,.54.71h3.1a.63.63,0,0,0,.72-.71h0Zm0-11.19V24.15a.33.33,0,0,1,.28-.37h3.46a2.33,2.33,0,0,1,1.62.48,2,2,0,0,1,.51,1.53v2.65a1.89,1.89,0,0,1-.51,1.48,2.38,2.38,0,0,1-1.62.46h-3.37a.33.33,0,0,1-.38-.37ZM149,41.18V35.37l2.16-2.52,5.26,8.33a1.7,1.7,0,0,0,1.62.71h2.51a.73.73,0,0,0,.63-.22.58.58,0,0,0-.09-.63l-7.28-11.29,6.53-8.94a.6.6,0,0,0,.19-.56.44.44,0,0,0-.46-.22h-3.37a1.48,1.48,0,0,0-1.34.71l-5.22,7.58a11.17,11.17,0,0,0-1.07,2.11H149V20.75a.63.63,0,0,0-.54-.71h-3.1a.63.63,0,0,0-.72.71V41.18a.63.63,0,0,0,.54.71h3.1a.63.63,0,0,0,.72-.71Z"/><path class="cls-2" d="M150,1H30A30,30,0,0,0,0,31H0A30,30,0,0,0,30,61H150a30,30,0,0,0,30-30h0A30,30,0,0,0,150,1Zm23.92,30A24.08,24.08,0,0,1,149.86,55H30.2A24.08,24.08,0,0,1,6.11,31h0A24.08,24.08,0,0,1,30.2,6.88H149.86A24.08,24.08,0,0,1,173.95,31Z"/></svg>