<svg 
 xmlns="http://www.w3.org/2000/svg"
 xmlns:xlink="http://www.w3.org/1999/xlink"
 width="14px" height="11px">
<path fill-rule="evenodd"  fill="WHITE"
 d="M7.000,6.220 L1.656,2.908 L1.656,1.564 L7.000,4.908 L12.344,1.564 L12.344,2.908 L7.000,6.220 ZM1.656,0.220 C1.292,0.220 0.982,0.356 0.727,0.626 C0.471,0.897 0.344,1.210 0.344,1.564 L0.344,9.564 C0.344,9.929 0.474,10.244 0.734,10.509 C0.995,10.775 1.302,10.908 1.656,10.908 L12.344,10.908 C12.708,10.908 13.018,10.775 13.273,10.509 C13.529,10.244 13.656,9.929 13.656,9.564 L13.656,1.564 C13.656,1.210 13.526,0.897 13.266,0.626 C13.005,0.356 12.698,0.220 12.344,0.220 L1.656,0.220 Z"/>
</svg>