<svg 
 xmlns="http://www.w3.org/2000/svg"
 xmlns:xlink="http://www.w3.org/1999/xlink"
 width="12px" height="13px">
<path fill="white"
 d="M3.875,4.283 C3.969,4.189 4.026,4.079 4.047,3.954 C4.068,3.829 4.062,3.710 4.031,3.595 C3.906,3.220 3.812,2.837 3.750,2.447 C3.688,2.056 3.656,1.647 3.656,1.220 C3.656,1.033 3.594,0.876 3.469,0.751 C3.344,0.626 3.187,0.564 3.000,0.564 L0.656,0.564 C0.469,0.564 0.312,0.626 0.187,0.751 C0.063,0.876 -0.000,1.033 -0.000,1.220 C-0.000,2.783 0.297,4.254 0.891,5.634 C1.484,7.014 2.297,8.218 3.328,9.244 C4.359,10.270 5.562,11.079 6.938,11.673 C8.312,12.267 9.781,12.564 11.344,12.564 C11.531,12.564 11.688,12.501 11.813,12.376 C11.937,12.251 12.000,12.095 12.000,11.908 L12.000,9.564 C12.000,9.376 11.937,9.220 11.813,9.095 C11.688,8.970 11.531,8.908 11.344,8.908 C10.938,8.908 10.534,8.876 10.133,8.814 C9.732,8.751 9.344,8.658 8.969,8.533 C8.854,8.491 8.734,8.483 8.609,8.509 C8.484,8.535 8.375,8.595 8.281,8.689 L6.812,10.158 C6.344,9.918 5.896,9.642 5.469,9.329 C5.042,9.017 4.641,8.673 4.266,8.298 C3.891,7.923 3.547,7.522 3.234,7.095 C2.922,6.668 2.646,6.220 2.406,5.751 L3.875,4.283 Z"/>
</svg>