<svg 
 xmlns="http://www.w3.org/2000/svg"
 xmlns:xlink="http://www.w3.org/1999/xlink"
 width="20px" height="20px">
<path fill-rule="evenodd"  fill="rgb(231, 76, 60)"
 d="M13.851,8.460 C13.851,11.426 11.434,13.840 8.464,13.840 C5.495,13.840 3.078,11.426 3.078,8.460 C3.078,5.494 5.495,3.080 8.464,3.080 C11.434,3.080 13.851,5.494 13.851,8.460 ZM20.007,18.452 C20.007,18.044 19.839,17.648 19.562,17.371 L15.438,13.252 C16.412,11.847 16.929,10.165 16.929,8.460 C16.929,3.788 13.142,0.005 8.464,0.005 C3.787,0.005 -0.000,3.788 -0.000,8.460 C-0.000,13.132 3.787,16.915 8.464,16.915 C10.172,16.915 11.855,16.399 13.262,15.426 L17.386,19.533 C17.662,19.821 18.059,19.990 18.468,19.990 C19.310,19.990 20.007,19.293 20.007,18.452 Z"/>
</svg>